<svg width="48" height="48" viewBox="0 0 48 48" fill="none" xmlns="http://www.w3.org/2000/svg">
<path d="M16.35 23.1666V27.3333M16.35 23.1666V13.1667C16.35 11.786 17.4917 10.6667 18.9 10.6667C20.3083 10.6667 21.45 11.786 21.45 13.1667M16.35 23.1666C16.35 21.786 15.2083 20.6667 13.8 20.6667C12.3917 20.6667 11.25 21.786 11.25 23.1666V26.5001C11.25 33.4035 16.9584 39 24 39C31.0416 39 36.75 33.4035 36.75 26.5001V18.1667C36.75 16.786 35.6083 15.6667 34.2 15.6667C32.7916 15.6667 31.65 16.786 31.65 18.1667M21.45 13.1667V22.3333M21.45 13.1667V11.5C21.45 10.1193 22.5917 9 24 9C25.4083 9 26.55 10.1193 26.55 11.5V13.1667M31.65 18.1667V13.1667C31.65 11.786 30.5083 10.6667 29.1 10.6667C27.6916 10.6667 26.55 11.786 26.55 13.1667M31.65 18.1667V22.3333M26.55 13.1667V22.3333" stroke="currentcolor" stroke-width="2" stroke-linecap="round" stroke-linejoin="round"/>
</svg>
