<svg width="48" height="48" viewBox="0 0 48 48" fill="none" xmlns="http://www.w3.org/2000/svg">
<path d="M13.5 13.4843C13.5 12.0275 13.5 11.2992 13.8037 10.8976C14.0683 10.5479 14.4728 10.3314 14.9106 10.3053C15.4132 10.2753 16.0192 10.6793 17.2313 11.4873L33.0046 22.0029C34.0062 22.6705 34.5069 23.0044 34.6813 23.4252C34.834 23.7931 34.834 24.2065 34.6813 24.5745C34.5069 24.9952 34.0062 25.329 33.0046 25.9968L17.2313 36.5122C16.0192 37.3203 15.4132 37.7244 14.9106 37.6944C14.4728 37.6683 14.0683 37.4518 13.8037 37.102C13.5 36.7005 13.5 35.9721 13.5 34.5154V13.4843Z" stroke="currentcolor" stroke-width="2" stroke-linecap="round" stroke-linejoin="round"/>
</svg>
