<svg width="48" height="48" viewBox="0 0 48 48" fill="none" xmlns="http://www.w3.org/2000/svg">
<path d="M10.5 17.7C10.5 15.1798 10.5 13.9196 10.9905 12.957C11.4219 12.1103 12.1103 11.4219 12.957 10.9905C13.9196 10.5 15.1798 10.5 17.7 10.5H30.3C32.8203 10.5 34.0803 10.5 35.043 10.9905C35.8897 11.4219 36.5781 12.1103 37.0095 12.957C37.5 13.9196 37.5 15.1798 37.5 17.7V30.3C37.5 32.8203 37.5 34.0803 37.0095 35.043C36.5781 35.8897 35.8897 36.5781 35.043 37.0095C34.0803 37.5 32.8203 37.5 30.3 37.5H17.7C15.1798 37.5 13.9196 37.5 12.957 37.0095C12.1103 36.5781 11.4219 35.8897 10.9905 35.043C10.5 34.0803 10.5 32.8203 10.5 30.3V17.7Z" fill="currentcolor"/>
<path d="M10.5 17.7C10.5 15.1798 10.5 13.9196 10.9905 12.957C11.4219 12.1103 12.1103 11.4219 12.957 10.9905C13.9196 10.5 15.1798 10.5 17.7 10.5H30.3C32.8203 10.5 34.0803 10.5 35.043 10.9905C35.8897 11.4219 36.5781 12.1103 37.0095 12.957C37.5 13.9196 37.5 15.1798 37.5 17.7V30.3C37.5 32.8203 37.5 34.0803 37.0095 35.043C36.5781 35.8897 35.8897 36.5781 35.043 37.0095C34.0803 37.5 32.8203 37.5 30.3 37.5H17.7C15.1798 37.5 13.9196 37.5 12.957 37.0095C12.1103 36.5781 11.4219 35.8897 10.9905 35.043C10.5 34.0803 10.5 32.8203 10.5 30.3V17.7Z" stroke="currentcolor" stroke-width="2" stroke-linecap="round" stroke-linejoin="round"/>
</svg>
